<?xml version="1.0" encoding="UTF-8"?>
<!DOCTYPE svg PUBLIC "-//W3C//DTD SVG 1.1//EN" "http://www.w3.org/Graphics/SVG/1.1/DTD/svg11.dtd">
<!-- Creator: CorelDRAW X7 -->
<svg xmlns="http://www.w3.org/2000/svg" xml:space="preserve" width="297mm" height="75mm" version="1.1" style="shape-rendering:geometricPrecision; text-rendering:geometricPrecision; image-rendering:optimizeQuality; fill-rule:evenodd; clip-rule:evenodd"
viewBox="0 0 29700 7500"
 xmlns:xlink="http://www.w3.org/1999/xlink">
 <defs>
  <style type="text/css">
   <![CDATA[
    .fil2 {fill:#00A0E6}
    .fil0 {fill:#0154A8}
    .fil1 {fill:#019FE8}
   ]]>
  </style>
 </defs>
 <g id="图层_x0020_1">
  <metadata id="CorelCorpID_0Corel-Layer"/>
  <path class="fil0" d="M10553 2344c6,0 -1366,745 -1559,1143 -108,232 -161,551 -161,955 0,499 77,870 229,1114 191,279 517,419 979,419 521,0 869,-183 1048,-553 91,-215 137,-525 137,-932 0,-514 22,-689 -115,-903 -40,-60 -85,-114 -135,-163 306,-130 619,-166 854,-185 221,342 241,624 241,1228 0,745 -189,1291 -569,1636 -381,332 -883,497 -1508,497 -727,0 -1255,-207 -1586,-621 -133,-151 -237,-368 -310,-653 -73,-283 -110,-570 -110,-859 0,-306 41,-598 122,-874 81,-277 196,-498 344,-662 281,-329 2193,-1383 2513,-1577l327 540 -741 450zm2053 1108l1292 0c327,0 572,25 734,77 161,52 311,153 448,307 248,263 372,648 372,1154 0,260 -41,505 -123,735 -82,228 -199,410 -351,545 -121,104 -258,176 -410,219 -153,42 -392,64 -717,65l-494 0 0 928 -751 0 0 -4030zm751 601l0 1899 494 0c309,0 519,-56 627,-167 134,-147 201,-419 201,-818 0,-336 -65,-571 -195,-709 -131,-137 -342,-205 -633,-205l-494 0zm3386 1366l-274 -548 1414 -801c-127,-139 -313,-208 -557,-208 -243,0 -446,88 -604,262 -181,179 -271,412 -271,699 0,273 90,498 271,676 158,175 361,262 604,262 276,0 485,-79 628,-238 137,-135 240,-359 310,-672l670 59c-38,451 -197,808 -477,1075 -302,283 -679,425 -1131,425 -437,0 -803,-149 -1101,-447 -318,-317 -476,-697 -476,-1140 0,-458 156,-844 470,-1157 302,-286 670,-429 1107,-429 685,0 1193,331 1524,991l-2107 1191zm2701 -1967l1459 0c264,0 481,30 653,90 172,61 309,169 413,323 135,167 202,454 202,864l0 1825 -750 0 0 -1778c0,-288 -46,-480 -136,-578 -90,-97 -249,-145 -478,-145l-612 0 0 2501 -751 0 0 -3102zm6607 666l0 649 -2381 0 0 1787 -821 0 0 -2516c0,-240 12,-426 37,-558 25,-132 69,-256 135,-371 133,-283 335,-480 603,-589 269,-110 647,-163 1136,-163l1291 0 0 648 -1339 0c-304,0 -514,30 -631,89 -141,70 -245,171 -311,304 -67,133 -100,315 -100,544l0 176 2381 0zm3619 -1761l0 648 -1268 0c-214,0 -377,15 -488,44 -109,31 -207,74 -292,128 -117,104 -206,231 -266,383 -61,152 -98,338 -112,558l2426 0 0 649 -2432 0c-15,236 48,469 188,696 87,163 203,278 349,343 145,66 347,98 603,98l1292 0 0 650 -1411 0c-362,-1 -650,-43 -867,-126 -400,-151 -692,-466 -875,-943 -97,-260 -145,-576 -145,-947 0,-500 73,-905 220,-1214 180,-346 412,-594 694,-743 284,-150 671,-224 1163,-224l1221 0z"/>
  <rect class="fil1" x="11639" y="2497" width="449" height="409"/>
  <rect class="fil2" x="10704" y="2520" width="512" height="476"/>
  <rect class="fil1" x="12253" y="2247" width="449" height="409"/>
  <rect class="fil1" x="12306" y="1576" width="449" height="409"/>
  <rect class="fil1" x="11508" y="1780" width="449" height="409"/>
  <polygon class="fil1" points="58,2080 58,5479 3514,7475 3514,4070 1353,2844 3659,1473 5586,2636 6774,1878 3577,52 "/>
  <path class="fil0" d="M3937 4069c38,-19 3096,-1983 3096,-1983l0 871 -1718 1107 0 589 1718 -1060 0 717 -1718 1052 0 531 1718 -1037 0 739 -3096 1883 0 -3409z"/>
 </g>
</svg>
