<?xml version="1.0" encoding="UTF-8"?>
<!DOCTYPE svg PUBLIC "-//W3C//DTD SVG 1.1//EN" "http://www.w3.org/Graphics/SVG/1.1/DTD/svg11.dtd">
<!-- Creator: CorelDRAW X7 -->
<svg xmlns="http://www.w3.org/2000/svg" xml:space="preserve" width="297mm" height="79.9042mm" version="1.1" style="shape-rendering:geometricPrecision; text-rendering:geometricPrecision; image-rendering:optimizeQuality; fill-rule:evenodd; clip-rule:evenodd"
viewBox="0 0 29700 7990"
 xmlns:xlink="http://www.w3.org/1999/xlink">
 <defs>
  <style type="text/css">
   <![CDATA[
    .fil3 {fill:none}
    .fil2 {fill:#00A0E6}
    .fil0 {fill:#0154A8}
    .fil1 {fill:#019FE8}
   ]]>
  </style>
 </defs>
 <g id="图层_x0020_1">
  <metadata id="CorelCorpID_0Corel-Layer"/>
  <path class="fil0" d="M10510 2809c6,1 -1329,725 -1517,1113 -105,225 -156,536 -156,929 0,486 74,846 222,1084 186,272 503,408 953,408 506,0 845,-179 1019,-539 89,-208 134,-510 134,-906 0,-501 21,-671 -112,-879 -39,-59 -82,-111 -132,-159 298,-126 603,-161 832,-180 215,333 235,608 235,1195 0,726 -184,1257 -554,1593 -371,322 -860,483 -1468,483 -707,0 -1221,-202 -1544,-605 -129,-146 -230,-358 -301,-635 -71,-276 -107,-554 -107,-836 0,-298 39,-582 119,-850 79,-270 190,-485 335,-645 273,-320 2133,-1346 2444,-1534l319 525 -721 438zm1998 1078l1257 0c319,0 557,25 714,75 157,51 303,150 436,299 241,256 362,631 362,1123 0,253 -39,491 -120,715 -80,222 -193,399 -341,531 -117,101 -251,171 -399,212 -148,42 -382,63 -698,64l-481 0 0 903 -730 0 0 -3922zm730 585l0 1848 481 0c301,0 505,-54 611,-162 129,-143 195,-408 195,-797 0,-326 -64,-555 -190,-689 -127,-133 -332,-200 -616,-200l-481 0zm3296 1329l-267 -533 1376 -779c-123,-135 -304,-202 -542,-202 -237,0 -434,85 -588,255 -176,174 -264,400 -264,680 0,265 88,484 264,657 154,170 351,255 588,255 268,0 472,-77 611,-231 134,-131 234,-350 302,-654l651 57c-36,439 -191,787 -463,1046 -294,276 -661,414 -1101,414 -425,0 -782,-145 -1071,-435 -310,-308 -464,-678 -464,-1109 0,-446 152,-822 458,-1126 293,-279 652,-418 1077,-418 667,0 1161,322 1483,965l-2050 1158zm2628 -1914l1420 0c257,0 468,30 635,88 168,59 301,164 402,315 131,162 197,441 197,840l0 1776 -730 0 0 -1731c0,-279 -45,-466 -133,-561 -87,-95 -242,-142 -464,-142l-596 0 0 2434 -731 0 0 -3019zm6430 649l0 631 -2317 0 0 1739 -800 0 0 -2448c0,-234 12,-415 37,-543 24,-129 67,-249 131,-361 130,-276 326,-468 587,-574 262,-106 629,-159 1105,-159l1257 0 0 631 -1304 0c-295,0 -500,30 -613,87 -138,68 -239,166 -303,296 -65,129 -97,306 -97,530l0 171 2317 0zm3521 -1715l0 631 -1233 0c-209,0 -367,15 -475,44 -107,29 -202,71 -285,124 -113,101 -200,225 -259,373 -59,147 -95,328 -109,543l2361 0 0 631 -2366 0c-14,230 47,456 182,678 85,158 198,270 341,333 141,64 337,96 586,96l1257 0 0 632 -1373 0c-352,-1 -633,-42 -843,-123 -390,-146 -674,-453 -851,-917 -95,-254 -142,-561 -142,-922 0,-486 71,-881 214,-1181 176,-337 401,-578 676,-723 276,-147 653,-219 1131,-219l1188 0z"/>
  <rect class="fil1" x="11567" y="2958" width="437" height="398"/>
  <rect class="fil2" x="10656" y="2980" width="498" height="463"/>
  <rect class="fil1" x="12164" y="2715" width="437" height="398"/>
  <rect class="fil1" x="12216" y="2061" width="437" height="398"/>
  <rect class="fil1" x="11439" y="2260" width="437" height="398"/>
  <polygon class="fil1" points="297,2552 297,5860 3660,7803 3660,4489 1557,3296 3801,1962 5677,3093 6833,2355 3722,578 "/>
  <path class="fil0" d="M4072 4488c37,-19 3013,-1930 3013,-1930l0 847 -1673 1078 0 574 1673 -1032 0 697 -1673 1024 0 517 1673 -1010 0 720 -3013 1832 0 -3317z"/>
  <rect class="fil3" width="29700" height="7990"/>
 </g>
</svg>
