<?xml version="1.0" encoding="UTF-8"?>
<!DOCTYPE svg PUBLIC "-//W3C//DTD SVG 1.1//EN" "http://www.w3.org/Graphics/SVG/1.1/DTD/svg11.dtd">
<!-- Creator: CorelDRAW X7 -->
<svg xmlns="http://www.w3.org/2000/svg" xml:space="preserve" width="233.183mm" height="58.5125mm" version="1.1" style="shape-rendering:geometricPrecision; text-rendering:geometricPrecision; image-rendering:optimizeQuality; fill-rule:evenodd; clip-rule:evenodd"
viewBox="0 0 34456 8646"
 xmlns:xlink="http://www.w3.org/1999/xlink">
 <defs>
  <style type="text/css">
   <![CDATA[
    .fil2 {fill:#00A0E6}
    .fil0 {fill:#0154A8}
    .fil1 {fill:#019FE8}
   ]]>
  </style>
 </defs>
 <g id="图层_x0020_1">
  <metadata id="CorelCorpID_0Corel-Layer"/>
  <path class="fil0" d="M12211 2667c7,1 -1589,867 -1814,1331 -125,269 -186,640 -186,1111 0,580 88,1012 266,1296 222,325 601,488 1139,488 606,0 1011,-214 1219,-644 107,-250 160,-611 160,-1085 0,-598 25,-801 -134,-1050 -46,-70 -99,-133 -157,-190 356,-151 720,-193 994,-216 257,398 280,727 280,1429 0,868 -220,1503 -662,1905 -443,385 -1028,578 -1755,578 -846,0 -1460,-241 -1846,-724 -155,-175 -275,-428 -360,-759 -85,-329 -128,-663 -128,-1000 0,-356 47,-695 142,-1016 95,-323 228,-580 401,-771 326,-383 2551,-1609 2923,-1835l381 628 -863 524zm2389 1289l1504 0c381,0 666,30 854,90 188,60 361,179 521,357 288,306 433,754 433,1343 0,303 -48,588 -143,855 -96,266 -232,477 -408,635 -141,120 -300,204 -478,254 -177,49 -456,74 -834,76l-575 0 0 1080 -874 0 0 -4690zm874 700l0 2210 575 0c360,0 604,-65 730,-194 155,-172 233,-489 233,-953 0,-390 -76,-665 -227,-824 -151,-160 -397,-239 -736,-239l-575 0zm3940 1589l-319 -637 1646 -932c-148,-162 -364,-242 -648,-242 -284,0 -519,102 -703,305 -211,208 -316,479 -316,813 0,317 105,579 316,786 184,204 419,305 703,305 320,0 564,-92 731,-276 159,-157 279,-419 360,-783l779 69c-44,525 -229,941 -554,1250 -351,330 -790,496 -1316,496 -508,0 -935,-174 -1282,-520 -370,-369 -554,-811 -554,-1327 0,-533 182,-982 547,-1346 352,-334 781,-499 1289,-499 797,0 1388,384 1773,1152l-2452 1386zm3143 -2289l1697 0c308,0 561,36 761,105 199,71 359,197 480,376 157,194 235,529 235,1005l0 2124 -873 0 0 -2069c0,-335 -53,-558 -158,-672 -104,-113 -290,-169 -556,-169l-713 0 0 2910 -873 0 0 -3610zm7688 776l0 755 -2770 0 0 2079 -956 0 0 -2928c0,-279 14,-495 43,-649 29,-153 81,-298 157,-431 155,-330 389,-559 702,-686 313,-128 753,-190 1321,-190l1503 0 0 754 -1558 0c-354,0 -598,36 -734,104 -165,82 -285,199 -362,354 -78,154 -116,366 -116,633l0 205 2770 0zm4211 -2050l0 754 -1475 0c-250,0 -439,18 -568,52 -128,36 -241,85 -340,149 -136,121 -240,268 -310,446 -71,176 -114,392 -130,649l2823 0 0 755 -2830 0c-17,274 57,545 218,810 102,189 237,323 407,398 169,77 403,115 701,115l1504 0 0 756 -1642 0c-421,-2 -757,-50 -1009,-147 -465,-175 -805,-542 -1017,-1097 -114,-303 -169,-670 -169,-1102 0,-582 85,-1053 255,-1413 210,-402 480,-690 809,-864 329,-175 780,-261 1352,-261l1421 0z"/>
  <rect class="fil1" x="13475" y="2846" width="523" height="476"/>
  <rect class="fil2" x="12387" y="2872" width="596" height="554"/>
  <rect class="fil1" x="14189" y="2555" width="523" height="476"/>
  <rect class="fil1" x="14251" y="1773" width="523" height="476"/>
  <rect class="fil1" x="13323" y="2011" width="523" height="476"/>
  <polygon class="fil1" points="0,2360 0,6315 4021,8638 4021,4676 1507,3249 4190,1654 6432,3007 7815,2125 4095,0 "/>
  <path class="fil0" d="M4514 4674c44,-22 3602,-2307 3602,-2307l0 1013 -2000 1288 0 687 2000 -1234 0 834 -2000 1224 0 618 2000 -1207 0 860 -3602 2191 0 -3967z"/>
 </g>
</svg>
