<?xml version="1.0" encoding="UTF-8"?>
<!DOCTYPE svg PUBLIC "-//W3C//DTD SVG 1.1//EN" "http://www.w3.org/Graphics/SVG/1.1/DTD/svg11.dtd">
<!-- Creator: CorelDRAW X7 -->
<svg xmlns="http://www.w3.org/2000/svg" xml:space="preserve" width="297mm" height="210mm" version="1.1" style="shape-rendering:geometricPrecision; text-rendering:geometricPrecision; image-rendering:optimizeQuality; fill-rule:evenodd; clip-rule:evenodd"
viewBox="0 0 29700 21000"
 xmlns:xlink="http://www.w3.org/1999/xlink">
 <defs>
  <style type="text/css">
   <![CDATA[
    .fil2 {fill:#00A0E6}
    .fil0 {fill:#0154A8}
    .fil1 {fill:#019FE8}
   ]]>
  </style>
 </defs>
 <g id="图层_x0020_1">
  <metadata id="CorelCorpID_0Corel-Layer"/>
  <path class="fil0" d="M12169 10309c5,1 -1076,587 -1228,901 -84,182 -126,433 -126,752 0,393 60,685 180,877 150,220 407,330 771,330 410,0 684,-145 825,-436 72,-169 108,-413 108,-734 0,-404 17,-542 -91,-711 -31,-47 -66,-90 -106,-128 241,-102 488,-131 673,-146 174,269 190,492 190,967 0,587 -149,1017 -448,1289 -300,261 -696,391 -1188,391 -572,0 -988,-163 -1249,-490 -105,-118 -187,-289 -244,-513 -58,-223 -87,-449 -87,-677 0,-241 32,-470 96,-688 64,-219 155,-392 272,-522 221,-259 1726,-1089 1978,-1241l258 425 -584 354zm1617 873l1017 0c258,0 451,20 578,61 127,40 245,120 353,241 195,207 293,511 293,909 0,205 -32,398 -97,578 -65,180 -157,324 -276,430 -95,82 -203,138 -323,172 -120,34 -309,50 -565,51l-389 0 0 732 -591 0 0 -3174zm591 473l0 1496 389 0c244,0 409,-44 494,-132 105,-116 158,-330 158,-644 0,-264 -51,-450 -154,-558 -102,-108 -269,-162 -498,-162l-389 0zm2667 1076l-216 -432 1113 -630c-100,-110 -246,-164 -438,-164 -192,0 -351,69 -476,206 -143,141 -214,324 -214,551 0,214 71,392 214,532 125,137 284,206 476,206 217,0 382,-62 494,-187 108,-106 189,-283 244,-530l528 47c-30,355 -156,637 -376,846 -237,223 -534,335 -890,335 -344,0 -633,-117 -867,-352 -251,-249 -376,-548 -376,-897 0,-361 124,-665 371,-911 238,-226 528,-338 872,-338 539,0 939,260 1200,780l-1659 938zm2126 -1549l1149 0c208,0 380,24 515,71 135,48 243,133 325,254 106,132 159,358 159,680l0 1437 -591 0 0 -1400c0,-226 -36,-377 -107,-454 -70,-77 -196,-115 -376,-115l-482 0 0 1969 -592 0 0 -2442zm5203 525l0 511 -1874 0 0 1406 -648 0 0 -1981c0,-188 10,-335 30,-439 19,-104 54,-202 106,-292 105,-223 264,-378 475,-464 212,-86 510,-129 894,-129l1017 0 0 511 -1054 0c-239,0 -405,24 -497,70 -111,55 -193,135 -245,239 -53,105 -78,248 -78,429l0 139 1874 0zm2850 -1388l0 511 -998 0c-169,0 -297,12 -384,35 -87,24 -164,58 -231,101 -92,81 -162,181 -209,301 -48,120 -77,266 -88,440l1910 0 0 511 -1915 0c-11,185 38,369 148,548 69,128 160,218 275,269 114,52 273,78 475,78l1017 0 0 511 -1111 0c-285,-1 -512,-33 -683,-99 -315,-118 -544,-366 -688,-742 -77,-205 -115,-454 -115,-746 0,-394 58,-713 173,-956 142,-272 325,-467 547,-585 223,-118 528,-177 916,-177l961 0z"/>
  <rect class="fil1" x="13024" y="10430" width="354" height="322"/>
  <rect class="fil2" x="12288" y="10448" width="403" height="375"/>
  <rect class="fil1" x="13507" y="10233" width="354" height="322"/>
  <rect class="fil1" x="13550" y="9704" width="354" height="322"/>
  <rect class="fil1" x="12921" y="9865" width="354" height="322"/>
  <polygon class="fil1" points="3905,10101 3905,12778 6626,14350 6626,11668 4925,10703 6741,9624 8258,10539 9193,9942 6676,8504 "/>
  <path class="fil0" d="M6960 11668c29,-15 2437,-1562 2437,-1562l0 686 -1353 872 0 464 1353 -835 0 565 -1353 828 0 418 1353 -817 0 583 -2437 1482 0 -2684z"/>
 </g>
</svg>
