<?xml version="1.0" encoding="UTF-8"?>
<!DOCTYPE svg PUBLIC "-//W3C//DTD SVG 1.1//EN" "http://www.w3.org/Graphics/SVG/1.1/DTD/svg11.dtd">
<!-- Creator: CorelDRAW X7 -->
<svg xmlns="http://www.w3.org/2000/svg" xml:space="preserve" width="297mm" height="210mm" version="1.1" style="shape-rendering:geometricPrecision; text-rendering:geometricPrecision; image-rendering:optimizeQuality; fill-rule:evenodd; clip-rule:evenodd"
viewBox="0 0 29700 21000"
 xmlns:xlink="http://www.w3.org/1999/xlink">
 <defs>
  <style type="text/css">
   <![CDATA[
    .fil0 {fill:none}
    .fil3 {fill:#00A0E6}
    .fil1 {fill:#0154A8}
    .fil2 {fill:#019FE8}
   ]]>
  </style>
 </defs>
 <g id="图层_x0020_1">
  <metadata id="CorelCorpID_0Corel-Layer"/>
  <rect class="fil0" width="29700" height="21000"/>
  <path class="fil1" d="M11954 10689c5,1 -1209,660 -1380,1012 -96,205 -142,488 -142,846 0,441 67,770 202,986 169,247 458,371 867,371 461,0 769,-163 927,-490 81,-190 122,-464 122,-825 0,-455 19,-610 -102,-799 -35,-54 -75,-102 -120,-144 271,-116 549,-147 757,-165 196,303 213,553 213,1087 0,661 -167,1144 -503,1449 -338,294 -783,440 -1336,440 -643,0 -1111,-183 -1404,-550 -118,-133 -210,-326 -274,-578 -65,-251 -98,-504 -98,-761 0,-270 36,-529 108,-773 72,-246 174,-441 305,-587 249,-291 1941,-1224 2224,-1395l290 478 -656 398zm1817 981l1145 0c289,0 506,22 649,68 143,46 275,136 397,272 219,233 329,574 329,1022 0,230 -36,447 -109,650 -73,202 -176,363 -310,483 -107,92 -229,155 -364,193 -135,38 -347,57 -635,58l-437 0 0 822 -665 0 0 -3568zm665 532l0 1681 437 0c275,0 460,-49 556,-147 118,-131 177,-372 177,-725 0,-297 -57,-506 -172,-627 -116,-121 -303,-182 -561,-182l-437 0zm2998 1209l-243 -485 1252 -708c-112,-124 -277,-185 -493,-185 -216,0 -395,78 -535,232 -160,159 -240,365 -240,619 0,241 80,441 240,598 140,155 319,232 535,232 244,0 429,-70 556,-210 122,-120 212,-319 275,-596l592 53c-33,399 -174,715 -422,951 -267,251 -600,377 -1001,377 -386,0 -711,-132 -975,-396 -281,-280 -421,-617 -421,-1009 0,-406 138,-747 416,-1024 267,-254 594,-380 980,-380 607,0 1056,292 1350,877l-1866 1054zm2391 -1741l1291 0c234,0 427,27 579,80 152,54 273,149 365,286 120,147 179,402 179,764l0 1616 -664 0 0 -1574c0,-255 -40,-425 -120,-511 -79,-86 -221,-129 -423,-129l-542 0 0 2214 -665 0 0 -2746zm5849 590l0 575 -2107 0 0 1581 -728 0 0 -2227c0,-212 11,-377 33,-494 22,-117 61,-227 120,-328 118,-251 296,-426 533,-522 239,-97 573,-145 1006,-145l1143 0 0 574 -1185 0c-269,0 -456,27 -559,79 -125,62 -217,151 -275,269 -60,118 -88,279 -88,482l0 156 2107 0zm3204 -1560l0 574 -1123 0c-189,0 -333,14 -431,40 -97,27 -184,64 -259,113 -104,92 -183,204 -236,339 -54,134 -86,299 -99,494l2148 0 0 575 -2153 0c-13,208 43,414 166,616 77,144 180,245 309,303 129,58 307,87 534,87l1144 0 0 575 -1249 0c-321,-1 -576,-38 -768,-112 -354,-133 -612,-412 -774,-834 -86,-231 -129,-510 -129,-839 0,-442 65,-801 195,-1074 160,-306 365,-526 615,-658 251,-133 593,-199 1029,-199l1081 0z"/>
  <rect class="fil2" x="12915" y="10825" width="398" height="362"/>
  <rect class="fil3" x="12087" y="10845" width="453" height="421"/>
  <rect class="fil2" x="13459" y="10603" width="398" height="362"/>
  <rect class="fil2" x="13506" y="10009" width="398" height="362"/>
  <rect class="fil2" x="12799" y="10190" width="398" height="362"/>
  <polygon class="fil2" points="880,10037 880,13768 4673,15960 4673,12222 2302,10877 4833,9372 6948,10648 8252,9815 4743,7811 "/>
  <path class="fil1" d="M5138 12221c42,-21 3398,-2177 3398,-2177l0 956 -1886 1215 0 647 1886 -1164 0 788 -1886 1154 0 583 1886 -1138 0 811 -3398 2067 0 -3742z"/>
 </g>
</svg>
