<?xml version="1.0" encoding="UTF-8"?>
<!DOCTYPE svg PUBLIC "-//W3C//DTD SVG 1.1//EN" "http://www.w3.org/Graphics/SVG/1.1/DTD/svg11.dtd">
<!-- Creator: CorelDRAW X7 -->
<svg xmlns="http://www.w3.org/2000/svg" xml:space="preserve" width="297mm" height="90mm" version="1.1" style="shape-rendering:geometricPrecision; text-rendering:geometricPrecision; image-rendering:optimizeQuality; fill-rule:evenodd; clip-rule:evenodd"
viewBox="0 0 29700 9000"
 xmlns:xlink="http://www.w3.org/1999/xlink">
 <defs>
  <style type="text/css">
   <![CDATA[
    .fil0 {fill:none}
    .fil3 {fill:#00A0E6}
    .fil1 {fill:#0154A8}
    .fil2 {fill:#019FE8}
   ]]>
  </style>
 </defs>
 <g id="图层_x0020_1">
  <metadata id="CorelCorpID_0Corel-Layer"/>
  <rect class="fil0" width="29700" height="9000"/>
  <path class="fil1" d="M10510 2964c6,1 -1329,726 -1517,1113 -105,226 -156,536 -156,930 0,485 74,846 222,1083 186,272 503,409 953,409 506,0 845,-179 1019,-539 89,-209 134,-510 134,-907 0,-500 21,-670 -112,-879 -39,-58 -82,-111 -132,-158 298,-127 603,-161 832,-181 215,333 235,608 235,1196 0,725 -184,1256 -554,1592 -371,323 -860,484 -1468,484 -707,0 -1221,-202 -1544,-605 -129,-147 -230,-358 -301,-635 -71,-276 -107,-555 -107,-836 0,-298 39,-582 119,-851 79,-270 190,-484 335,-644 273,-320 2133,-1346 2444,-1535l319 526 -721 437zm1998 1079l1257 0c319,0 557,25 714,75 157,50 303,149 436,299 241,256 362,630 362,1123 0,253 -39,491 -120,715 -80,222 -193,399 -341,530 -117,101 -251,172 -399,213 -148,42 -382,62 -698,63l-481 0 0 904 -730 0 0 -3922zm730 585l0 1848 481 0c301,0 505,-54 611,-162 129,-143 195,-408 195,-797 0,-326 -64,-556 -190,-689 -127,-134 -332,-200 -616,-200l-481 0zm3296 1329l-267 -533 1376 -779c-123,-136 -304,-203 -542,-203 -237,0 -434,85 -588,255 -176,174 -264,401 -264,681 0,265 88,484 264,657 154,170 351,255 588,255 268,0 472,-77 611,-231 134,-132 234,-350 302,-655l651 58c-36,439 -191,787 -463,1046 -294,276 -661,414 -1101,414 -425,0 -782,-145 -1071,-435 -310,-309 -464,-678 -464,-1109 0,-446 152,-822 458,-1127 293,-278 652,-417 1077,-417 667,0 1161,322 1483,964l-2050 1159zm2628 -1914l1420 0c257,0 468,29 635,88 168,59 301,164 402,314 131,162 197,442 197,841l0 1775 -730 0 0 -1730c0,-280 -45,-467 -133,-561 -87,-95 -242,-142 -464,-142l-596 0 0 2433 -731 0 0 -3018zm6430 648l0 632 -2317 0 0 1738 -800 0 0 -2448c0,-233 12,-414 37,-543 24,-128 67,-249 131,-360 130,-276 326,-468 587,-574 262,-107 629,-159 1105,-159l1257 0 0 631 -1304 0c-295,0 -500,29 -613,87 -138,68 -239,166 -303,295 -65,130 -97,307 -97,530l0 171 2317 0zm3521 -1714l0 631 -1233 0c-209,0 -367,15 -475,43 -107,30 -202,71 -285,125 -113,101 -200,224 -259,373 -59,147 -95,328 -109,542l2361 0 0 632 -2366 0c-14,230 47,456 182,677 85,159 198,270 341,334 141,64 337,96 586,96l1257 0 0 631 -1373 0c-352,-1 -633,-41 -843,-122 -390,-147 -674,-453 -851,-918 -95,-253 -142,-560 -142,-921 0,-487 71,-881 214,-1182 176,-336 401,-577 676,-723 276,-146 653,-218 1131,-218l1188 0z"/>
  <rect class="fil2" x="11567" y="3114" width="437" height="398"/>
  <rect class="fil3" x="10656" y="3136" width="498" height="463"/>
  <rect class="fil2" x="12164" y="2871" width="437" height="398"/>
  <rect class="fil2" x="12216" y="2217" width="437" height="398"/>
  <rect class="fil2" x="11439" y="2416" width="437" height="398"/>
  <polygon class="fil2" points="297,2708 297,6015 3660,7958 3660,4644 1557,3452 3801,2117 5677,3249 6833,2511 3722,734 "/>
  <path class="fil1" d="M4072 4643c37,-18 3013,-1929 3013,-1929l0 847 -1673 1077 0 574 1673 -1032 0 698 -1673 1023 0 517 1673 -1009 0 720 -3013 1832 0 -3318z"/>
 </g>
</svg>
